# xmcd
#
# Track frame offsets: 
#        300
#        31070
#        40582
#        60867
#        100415
#        177170
#
# Disc length: 2663 seconds
#
# Revision: 0
# Processed by: cddbd v1.5.2PL0 Copyright (c) Steve Scherf et al.
# Submitted via: ExactAudioCopy v1.0b1
#
DISCID=3d0a6306
DTITLE=Albert King - Live '69
DYEAR=2003
DGENRE=Modern Electric Blues
TTITLE0=Introduction
TTITLE1=Why Are You So Mean To Me
TTITLE2=As The Years Go Passing By
TTITLE3=Please Come Back To Me
TTITLE4=Crosscut Saw
TTITLE5=Personal Manager
EXTD=
EXTT0=
EXTT1=
EXTT2=
EXTT3=
EXTT4=
EXTT5=
PLAYORDER=
